<svg width="512" height="512" viewBox="0 0 512 512" fill="none" xmlns="http://www.w3.org/2000/svg">
<path d="M216 48H192V24H160V48H136V80H160V104H192V80H216V48Z" fill="#02A437"/>
<path d="M112 120H96V64C96 61.8783 96.8429 59.8434 98.3431 58.3431C99.8434 56.8429 101.878 56 104 56H120V72H112V120Z" fill="#B9B9B9"/>
<path d="M256 120H240V72H232V56H248C250.122 56 252.157 56.8429 253.657 58.3431C255.157 59.8434 256 61.8783 256 64V120Z" fill="#B9B9B9"/>
<path d="M232 112V144C232 158.852 226.1 173.096 215.598 183.598C205.096 194.1 190.852 200 176 200C161.148 200 146.904 194.1 136.402 183.598C125.9 173.096 120 158.852 120 144V120H88V144C88.0019 164.564 95.2038 184.479 108.356 200.288C121.508 216.096 139.779 226.801 160 230.545V264H192V230.545C212.221 226.801 230.492 216.096 243.644 200.288C256.796 184.479 263.998 164.564 264 144V112H232Z" fill="white"/>
<path d="M136 376C121.148 376 106.904 381.9 96.402 392.402C85.9 402.904 80 417.148 80 432C80 446.852 85.9 461.096 96.402 471.598C106.904 482.1 121.148 488 136 488H142C155.261 488 167.979 482.732 177.355 473.355C186.732 463.979 192 451.261 192 438V408H304V376H136ZM160 431C160 437.63 157.366 443.989 152.678 448.678C147.989 453.366 141.63 456 135 456H136C129.635 456 123.53 453.471 119.029 448.971C114.529 444.47 112 438.365 112 432C112 425.635 114.529 419.53 119.029 415.029C123.53 410.529 129.635 408 136 408H160V431Z" fill="white"/>
<path d="M312 376H272V408H312V376Z" fill="#B9B9B9"/>
<path d="M192 264H160V408H192V264Z" fill="white"/>
<path d="M160 376H136V408H160V376Z" fill="white"/>
<path d="M368 456C403.346 456 432 427.346 432 392C432 356.654 403.346 328 368 328C332.654 328 304 356.654 304 392C304 427.346 332.654 456 368 456Z" fill="#E4E4E2"/>
<path d="M395.112 407.733L368 424L340.888 407.733C336.957 405.375 333.704 402.039 331.446 398.05C329.187 394.061 328 389.555 328 384.971C328 380.47 329.788 376.153 332.971 372.971C336.153 369.788 340.47 368 344.971 368C349.472 368 353.788 369.788 356.971 372.971L368 384L379.029 372.971C382.212 369.788 386.528 368 391.029 368C395.53 368 399.847 369.788 403.029 372.971C406.212 376.153 408 380.47 408 384.971C408 389.555 406.813 394.061 404.554 398.05C402.296 402.039 399.043 405.375 395.112 407.733Z" fill="#F55648"/>
<path d="M112 112H96V120H112V112Z" fill="#A8A8A8"/>
<path d="M256 104H240V112H256V104Z" fill="#A8A8A8"/>
</svg>
